<svg width="72" height="104" viewBox="0 0 72 104" fill="none" xmlns="http://www.w3.org/2000/svg">
<path d="M72 36.4C72 31.6199 71.0688 26.8866 69.2597 22.4703C67.4505 18.0541 64.7988 14.0414 61.4558 10.6613C58.1129 7.28126 54.1443 4.60006 49.7766 2.77078C45.4089 0.941513 40.7276 0 36 0C31.2724 0 26.5911 0.941513 22.2234 2.77078C17.8557 4.60006 13.8871 7.28126 10.5442 10.6613C7.20125 14.0414 4.54951 18.0541 2.74034 22.4703C0.931167 26.8866 -7.04465e-08 31.6199 0 36.4C0 43.6124 2.10857 50.3204 5.68286 55.978H5.64172C17.7789 75.192 36 104 36 104L66.3583 55.978H66.3223C70.0272 50.1351 71.9977 43.3407 72 36.4ZM36 52C31.9081 52 27.9838 50.3564 25.0904 47.4309C22.1969 44.5053 20.5714 40.5374 20.5714 36.4C20.5714 32.2626 22.1969 28.2947 25.0904 25.3691C27.9838 22.4436 31.9081 20.8 36 20.8C40.0919 20.8 44.0162 22.4436 46.9096 25.3691C49.8031 28.2947 51.4286 32.2626 51.4286 36.4C51.4286 40.5374 49.8031 44.5053 46.9096 47.4309C44.0162 50.3564 40.0919 52 36 52Z" fill="url(#paint0_radial)"/>
<defs>
<radialGradient id="paint0_radial" cx="0" cy="0" r="1" gradientUnits="userSpaceOnUse" gradientTransform="translate(36 -22.8955) rotate(90) scale(126.896 87.8516)">
<stop stop-color="#FFB82E"/>
<stop offset="1" stop-color="#FF4D00"/>
</radialGradient>
</defs>
</svg>
