<svg width="158" height="47" viewBox="0 0 158 47" fill="none" xmlns="http://www.w3.org/2000/svg">
<path fill-rule="evenodd" clip-rule="evenodd" d="M29.2735 0L14.6847 28.3642L9.82056 23.638C9.82056 23.638 -1.23566 47 0.11427 47H58.4474V46.9927L46.2026 21.2005L42.5967 23.4237L29.2735 0V0ZM20.4659 23.4637L29.4569 6.20467L37.8389 21.0298L34.222 23.4637L29.3065 18.7847L20.4659 23.4637V23.4637Z" fill="#FF5C00"/>
<path d="M83.4508 8.19181H73.6558V28.9998H68.6858V3.7998H83.4508V8.19181Z" fill="#A0A0A0"/>
<path d="M79.9996 19.9998C79.9996 16.9518 80.7493 14.6118 82.2488 12.9798C83.7483 11.3238 85.8524 10.4958 88.5611 10.4958C90.0122 10.4958 91.2698 10.7238 92.334 11.1798C93.3981 11.6358 94.2809 12.2838 94.9823 13.1238C95.6836 13.9398 96.2036 14.9358 96.5422 16.1118C96.905 17.2878 97.0864 18.5838 97.0864 19.9998C97.0864 23.0478 96.3366 25.3998 94.8372 27.0558C93.3619 28.6878 91.2698 29.5038 88.5611 29.5038C87.11 29.5038 85.8524 29.2758 84.7882 28.8198C83.7241 28.3638 82.8292 27.7278 82.1037 26.9118C81.4023 26.0718 80.8702 25.0638 80.5075 23.8878C80.1689 22.7118 79.9996 21.4158 79.9996 19.9998ZM84.8608 19.9998C84.8608 20.7918 84.9333 21.5238 85.0785 22.1958C85.2236 22.8678 85.4412 23.4558 85.7315 23.9598C86.0217 24.4638 86.3965 24.8598 86.8561 25.1478C87.3398 25.4118 87.9081 25.5438 88.5611 25.5438C89.7946 25.5438 90.7136 25.0998 91.3182 24.2118C91.9228 23.3238 92.2252 21.9198 92.2252 19.9998C92.2252 18.3438 91.947 17.0118 91.3908 16.0038C90.8345 14.9718 89.8913 14.4558 88.5611 14.4558C87.4002 14.4558 86.4933 14.8878 85.8403 15.7518C85.1873 16.6158 84.8608 18.0318 84.8608 19.9998Z" fill="#A0A0A0"/>
<path d="M100.355 10.9998H103.802L104.346 13.1598H104.491C105.12 12.2478 105.857 11.5758 106.704 11.1438C107.575 10.7118 108.627 10.4958 109.86 10.4958C112.133 10.4958 113.839 11.2158 114.975 12.6558C116.112 14.0718 116.68 16.3638 116.68 19.5318C116.68 21.0678 116.499 22.4598 116.136 23.7078C115.773 24.9318 115.229 25.9758 114.504 26.8398C113.802 27.7038 112.932 28.3638 111.892 28.8198C110.876 29.2758 109.703 29.5038 108.373 29.5038C107.623 29.5038 107.006 29.4438 106.523 29.3238C106.039 29.2278 105.555 29.0598 105.071 28.8198V36.1998H100.355V10.9998ZM108.445 14.4558C107.526 14.4558 106.801 14.6838 106.269 15.1398C105.761 15.5958 105.362 16.2798 105.071 17.1918V24.6798C105.41 24.9438 105.773 25.1598 106.16 25.3278C106.571 25.4718 107.103 25.5438 107.756 25.5438C109.11 25.5438 110.126 25.0758 110.803 24.1398C111.48 23.1798 111.819 21.6078 111.819 19.4238C111.819 17.8398 111.553 16.6158 111.021 15.7518C110.489 14.8878 109.63 14.4558 108.445 14.4558Z" fill="#A0A0A0"/>
<path d="M134.458 27.4518C133.732 28.0278 132.741 28.5198 131.483 28.9278C130.25 29.3118 128.931 29.5038 127.529 29.5038C124.602 29.5038 122.462 28.6638 121.108 26.9838C119.753 25.2798 119.076 22.9518 119.076 19.9998C119.076 16.8318 119.838 14.4558 121.362 12.8718C122.885 11.2878 125.026 10.4958 127.783 10.4958C128.702 10.4958 129.597 10.6158 130.467 10.8558C131.338 11.0958 132.112 11.4918 132.789 12.0438C133.466 12.5958 134.01 13.3398 134.421 14.2758C134.833 15.2118 135.038 16.3758 135.038 17.7678C135.038 18.2718 135.002 18.8118 134.929 19.3878C134.881 19.9638 134.796 20.5638 134.675 21.1878H123.792C123.865 22.6998 124.252 23.8398 124.953 24.6078C125.679 25.3758 126.839 25.7598 128.436 25.7598C129.427 25.7598 130.31 25.6158 131.084 25.3278C131.882 25.0158 132.487 24.7038 132.898 24.3918L134.458 27.4518ZM127.71 14.2398C126.477 14.2398 125.558 14.6118 124.953 15.3558C124.373 16.0758 124.022 17.0478 123.901 18.2718H130.649C130.745 16.9758 130.54 15.9798 130.032 15.2838C129.548 14.5878 128.774 14.2398 127.71 14.2398Z" fill="#A0A0A0"/>
<path d="M156.072 33.1038H152.626L152.082 28.9998H138.369V10.9998H143.085V24.8598H148.708V10.9998H153.424V24.8598H156.072V33.1038Z" fill="#A0A0A0"/>
<path d="M70.2596 39.2198H67.7907V44.9998H66.4101V37.9998H71.6401V44.9998H70.2596V39.2198Z" fill="#A0A0A0"/>
<path d="M72.8158 39.9998H73.7732L73.9243 40.5998H73.9646C74.1393 40.3465 74.3442 40.1598 74.5793 40.0398C74.8212 39.9198 75.1134 39.8598 75.4561 39.8598C76.0876 39.8598 76.5612 40.0598 76.8769 40.4598C77.1927 40.8531 77.3506 41.4898 77.3506 42.3698C77.3506 42.7965 77.3002 43.1831 77.1994 43.5298C77.0986 43.8698 76.9475 44.1598 76.7459 44.3998C76.5511 44.6398 76.3093 44.8231 76.0204 44.9498C75.7382 45.0765 75.4124 45.1398 75.0429 45.1398C74.8346 45.1398 74.6633 45.1231 74.529 45.0898C74.3946 45.0631 74.2602 45.0165 74.1259 44.9498V46.9998H72.8158V39.9998ZM75.063 40.9598C74.8078 40.9598 74.6062 41.0231 74.4584 41.1498C74.3173 41.2765 74.2065 41.4665 74.1259 41.7198V43.7998C74.2199 43.8731 74.3207 43.9331 74.4282 43.9798C74.5424 44.0198 74.6902 44.0398 74.8716 44.0398C75.2478 44.0398 75.53 43.9098 75.7181 43.6498C75.9062 43.3831 76.0002 42.9465 76.0002 42.3398C76.0002 41.8998 75.9263 41.5598 75.7785 41.3198C75.6307 41.0798 75.3922 40.9598 75.063 40.9598Z" fill="#A0A0A0"/>
<path d="M78.016 42.4998C78.016 41.6531 78.2243 41.0031 78.6408 40.5498C79.0573 40.0898 79.6418 39.8598 80.3942 39.8598C80.7973 39.8598 81.1467 39.9231 81.4423 40.0498C81.7379 40.1765 81.9831 40.3565 82.1779 40.5898C82.3727 40.8165 82.5172 41.0931 82.6112 41.4198C82.712 41.7465 82.7624 42.1065 82.7624 42.4998C82.7624 43.3465 82.5541 43.9998 82.1376 44.4598C81.7278 44.9131 81.1467 45.1398 80.3942 45.1398C79.9912 45.1398 79.6418 45.0765 79.3462 44.9498C79.0506 44.8231 78.8021 44.6465 78.6005 44.4198C78.4057 44.1865 78.2579 43.9065 78.1571 43.5798C78.0631 43.2531 78.016 42.8931 78.016 42.4998ZM79.3664 42.4998C79.3664 42.7198 79.3865 42.9231 79.4268 43.1098C79.4672 43.2965 79.5276 43.4598 79.6082 43.5998C79.6888 43.7398 79.793 43.8498 79.9206 43.9298C80.055 44.0031 80.2129 44.0398 80.3942 44.0398C80.7369 44.0398 80.9922 43.9165 81.1601 43.6698C81.3281 43.4231 81.412 43.0331 81.412 42.4998C81.412 42.0398 81.3348 41.6698 81.1803 41.3898C81.0257 41.1031 80.7637 40.9598 80.3942 40.9598C80.0718 40.9598 79.8198 41.0798 79.6385 41.3198C79.4571 41.5598 79.3664 41.9531 79.3664 42.4998Z" fill="#A0A0A0"/>
<path d="M85.3331 42.9298H84.9804V44.9998H83.6704V39.9998H84.9804V42.1298L85.2928 41.9898L86.4719 39.9998H87.8726L86.6533 41.8998L86.1393 42.2798L86.7036 42.6698L88.064 44.9998H86.5626L85.3331 42.9298Z" fill="#A0A0A0"/>
<path d="M88.5705 40.2898C88.8392 40.1698 89.1583 40.0765 89.5278 40.0098C89.8973 39.9365 90.2836 39.8998 90.6867 39.8998C91.036 39.8998 91.3283 39.9431 91.5634 40.0298C91.7985 40.1098 91.9833 40.2265 92.1177 40.3798C92.2587 40.5331 92.3561 40.7165 92.4099 40.9298C92.4704 41.1431 92.5006 41.3831 92.5006 41.6498C92.5006 41.9431 92.4905 42.2398 92.4704 42.5398C92.4502 42.8331 92.4368 43.1231 92.43 43.4098C92.43 43.6965 92.4401 43.9765 92.4603 44.2498C92.4804 44.5165 92.5308 44.7698 92.6114 45.0098H91.5433L91.3316 44.3198H91.2813C91.1469 44.5265 90.9588 44.7065 90.7169 44.8598C90.4818 45.0065 90.1761 45.0798 89.7999 45.0798C89.5648 45.0798 89.3532 45.0465 89.1651 44.9798C88.9769 44.9065 88.8157 44.8065 88.6814 44.6798C88.547 44.5465 88.4429 44.3931 88.369 44.2198C88.2951 44.0398 88.2581 43.8398 88.2581 43.6198C88.2581 43.3131 88.3253 43.0565 88.4597 42.8498C88.6007 42.6365 88.7989 42.4665 89.0542 42.3398C89.3162 42.2065 89.6252 42.1165 89.9813 42.0698C90.3441 42.0165 90.7472 41.9998 91.1906 42.0198C91.2376 41.6465 91.2107 41.3798 91.1099 41.2198C91.0092 41.0531 90.7841 40.9698 90.4348 40.9698C90.1728 40.9698 89.894 40.9965 89.5984 41.0498C89.3095 41.1031 89.071 41.1731 88.8829 41.2598L88.5705 40.2898ZM90.2332 44.0098C90.4952 44.0098 90.7035 43.9531 90.858 43.8398C91.0125 43.7198 91.1267 43.5931 91.2006 43.4598V42.8098C90.9924 42.7898 90.7908 42.7865 90.596 42.7998C90.4079 42.8131 90.2399 42.8431 90.0922 42.8898C89.9444 42.9365 89.8268 43.0031 89.7395 43.0898C89.6521 43.1765 89.6084 43.2865 89.6084 43.4198C89.6084 43.6065 89.6622 43.7531 89.7697 43.8598C89.8839 43.9598 90.0384 44.0098 90.2332 44.0098Z" fill="#A0A0A0"/>
<path d="M97.2277 41.1498H95.827V44.9998H94.4766V41.1498H93.0356V39.9998H97.2277V41.1498Z" fill="#A0A0A0"/>
<path d="M99.9958 40.2898C100.265 40.1698 100.584 40.0765 100.953 40.0098C101.323 39.9365 101.709 39.8998 102.112 39.8998C102.461 39.8998 102.754 39.9431 102.989 40.0298C103.224 40.1098 103.409 40.2265 103.543 40.3798C103.684 40.5331 103.781 40.7165 103.835 40.9298C103.896 41.1431 103.926 41.3831 103.926 41.6498C103.926 41.9431 103.916 42.2398 103.896 42.5398C103.876 42.8331 103.862 43.1231 103.855 43.4098C103.855 43.6965 103.865 43.9765 103.886 44.2498C103.906 44.5165 103.956 44.7698 104.037 45.0098H102.969L102.757 44.3198H102.707C102.572 44.5265 102.384 44.7065 102.142 44.8598C101.907 45.0065 101.601 45.0798 101.225 45.0798C100.99 45.0798 100.779 45.0465 100.59 44.9798C100.402 44.9065 100.241 44.8065 100.107 44.6798C99.9723 44.5465 99.8682 44.3931 99.7943 44.2198C99.7204 44.0398 99.6835 43.8398 99.6835 43.6198C99.6835 43.3131 99.7506 43.0565 99.885 42.8498C100.026 42.6365 100.224 42.4665 100.48 42.3398C100.742 42.2065 101.051 42.1165 101.407 42.0698C101.769 42.0165 102.173 41.9998 102.616 42.0198C102.663 41.6465 102.636 41.3798 102.535 41.2198C102.435 41.0531 102.209 40.9698 101.86 40.9698C101.598 40.9698 101.319 40.9965 101.024 41.0498C100.735 41.1031 100.496 41.1731 100.308 41.2598L99.9958 40.2898ZM101.659 44.0098C101.921 44.0098 102.129 43.9531 102.283 43.8398C102.438 43.7198 102.552 43.5931 102.626 43.4598V42.8098C102.418 42.7898 102.216 42.7865 102.021 42.7998C101.833 42.8131 101.665 42.8431 101.517 42.8898C101.37 42.9365 101.252 43.0031 101.165 43.0898C101.077 43.1765 101.034 43.2865 101.034 43.4198C101.034 43.6065 101.088 43.7531 101.195 43.8598C101.309 43.9598 101.464 44.0098 101.659 44.0098Z" fill="#A0A0A0"/>
<path d="M105.025 40.0098C105.26 39.9898 105.543 39.9698 105.872 39.9498C106.208 39.9298 106.567 39.9198 106.95 39.9198C107.689 39.9198 108.213 40.0265 108.522 40.2398C108.838 40.4465 108.996 40.7598 108.996 41.1798C108.996 41.4131 108.928 41.6398 108.794 41.8598C108.66 42.0798 108.448 42.2398 108.159 42.3398V42.3798C108.522 42.4598 108.784 42.6031 108.945 42.8098C109.107 43.0098 109.187 43.2698 109.187 43.5898C109.187 44.0898 108.992 44.4631 108.603 44.7098C108.22 44.9565 107.602 45.0798 106.748 45.0798C106.466 45.0798 106.167 45.0698 105.852 45.0498C105.536 45.0365 105.26 45.0165 105.025 44.9898V40.0098ZM106.305 43.9998C106.399 44.0131 106.486 44.0231 106.567 44.0298C106.648 44.0365 106.748 44.0398 106.869 44.0398C107.232 44.0398 107.491 43.9898 107.645 43.8898C107.8 43.7898 107.877 43.6365 107.877 43.4298C107.877 43.2565 107.81 43.1165 107.676 43.0098C107.548 42.8965 107.316 42.8398 106.98 42.8398H106.305V43.9998ZM107 42.0398C107.215 42.0398 107.39 41.9898 107.524 41.8898C107.665 41.7831 107.736 41.6498 107.736 41.4898C107.736 41.3165 107.676 41.1865 107.555 41.0998C107.44 41.0065 107.229 40.9598 106.92 40.9598C106.765 40.9598 106.641 40.9631 106.547 40.9698C106.46 40.9765 106.379 40.9831 106.305 40.9898V42.0398H107Z" fill="#A0A0A0"/>
<path d="M113.741 41.1498H112.34V44.9998H110.99V41.1498H109.549V39.9998H113.741V41.1498Z" fill="#A0A0A0"/>
<path d="M114.004 42.4998C114.004 41.6531 114.213 41.0031 114.629 40.5498C115.046 40.0898 115.63 39.8598 116.383 39.8598C116.786 39.8598 117.135 39.9231 117.431 40.0498C117.726 40.1765 117.971 40.3565 118.166 40.5898C118.361 40.8165 118.506 41.0931 118.6 41.4198C118.7 41.7465 118.751 42.1065 118.751 42.4998C118.751 43.3465 118.542 43.9998 118.126 44.4598C117.716 44.9131 117.135 45.1398 116.383 45.1398C115.98 45.1398 115.63 45.0765 115.335 44.9498C115.039 44.8231 114.79 44.6465 114.589 44.4198C114.394 44.1865 114.246 43.9065 114.145 43.5798C114.051 43.2531 114.004 42.8931 114.004 42.4998ZM115.355 42.4998C115.355 42.7198 115.375 42.9231 115.415 43.1098C115.456 43.2965 115.516 43.4598 115.597 43.5998C115.677 43.7398 115.781 43.8498 115.909 43.9298C116.043 44.0031 116.201 44.0398 116.383 44.0398C116.725 44.0398 116.981 43.9165 117.148 43.6698C117.316 43.4231 117.4 43.0331 117.4 42.4998C117.4 42.0398 117.323 41.6698 117.169 41.3898C117.014 41.1031 116.752 40.9598 116.383 40.9598C116.06 40.9598 115.808 41.0798 115.627 41.3198C115.445 41.5598 115.355 41.9531 115.355 42.4998Z" fill="#A0A0A0"/>
<path d="M123.972 42.7098L124.052 41.6698H124.002L123.599 42.5298L122.652 44.0798H122.178L121.14 42.5298L120.757 41.6698H120.697L120.828 42.6998V44.9998H119.659V39.9998H121.019L122.178 41.8798L122.46 42.5098H122.501L122.793 41.8598L123.861 39.9998H125.231V44.9998H123.972V42.7098Z" fill="#A0A0A0"/>
<path d="M126.128 42.4998C126.128 41.6531 126.337 41.0031 126.753 40.5498C127.17 40.0898 127.754 39.8598 128.507 39.8598C128.91 39.8598 129.259 39.9231 129.555 40.0498C129.85 40.1765 130.095 40.3565 130.29 40.5898C130.485 40.8165 130.63 41.0931 130.724 41.4198C130.824 41.7465 130.875 42.1065 130.875 42.4998C130.875 43.3465 130.667 43.9998 130.25 44.4598C129.84 44.9131 129.259 45.1398 128.507 45.1398C128.104 45.1398 127.754 45.0765 127.459 44.9498C127.163 44.8231 126.914 44.6465 126.713 44.4198C126.518 44.1865 126.37 43.9065 126.27 43.5798C126.175 43.2531 126.128 42.8931 126.128 42.4998ZM127.479 42.4998C127.479 42.7198 127.499 42.9231 127.539 43.1098C127.58 43.2965 127.64 43.4598 127.721 43.5998C127.801 43.7398 127.905 43.8498 128.033 43.9298C128.167 44.0031 128.325 44.0398 128.507 44.0398C128.849 44.0398 129.105 43.9165 129.273 43.6698C129.44 43.4231 129.524 43.0331 129.524 42.4998C129.524 42.0398 129.447 41.6698 129.293 41.3898C129.138 41.1031 128.876 40.9598 128.507 40.9598C128.184 40.9598 127.932 41.0798 127.751 41.3198C127.569 41.5598 127.479 41.9531 127.479 42.4998Z" fill="#A0A0A0"/>
<path d="M132.639 40.9398C132.834 40.6465 133.063 40.4365 133.325 40.3098C133.593 40.1765 133.916 40.1098 134.292 40.1098C134.903 40.1098 135.387 40.2965 135.743 40.6698C136.106 41.0365 136.287 41.6098 136.287 42.3898C136.287 43.2898 136.082 43.9731 135.673 44.4398C135.263 44.9065 134.685 45.1398 133.939 45.1398C133.16 45.1398 132.565 44.8831 132.156 44.3698C131.746 43.8565 131.541 43.0565 131.541 41.9698C131.541 41.3965 131.575 40.9065 131.642 40.4998C131.709 40.0931 131.803 39.7498 131.924 39.4698C132.052 39.1898 132.199 38.9665 132.367 38.7998C132.542 38.6331 132.733 38.5031 132.942 38.4098C133.157 38.3098 133.385 38.2398 133.627 38.1998C133.869 38.1598 134.124 38.1265 134.393 38.0998C134.742 38.0665 135.041 38.0265 135.29 37.9798C135.538 37.9265 135.723 37.8431 135.844 37.7298L135.894 38.8898C135.76 39.0031 135.568 39.0831 135.32 39.1298C135.071 39.1698 134.735 39.2065 134.312 39.2398C134.057 39.2531 133.832 39.2831 133.637 39.3298C133.442 39.3765 133.274 39.4598 133.133 39.5798C132.992 39.6998 132.878 39.8698 132.791 40.0898C132.71 40.3031 132.649 40.5865 132.609 40.9398H132.639ZM132.891 42.5598C132.891 42.9865 132.975 43.3398 133.143 43.6198C133.311 43.8998 133.57 44.0398 133.919 44.0398C134.282 44.0398 134.541 43.9131 134.695 43.6598C134.856 43.4065 134.937 43.0398 134.937 42.5598C134.937 42.1265 134.863 41.7931 134.715 41.5598C134.567 41.3265 134.322 41.2098 133.98 41.2098C133.61 41.2098 133.335 41.3298 133.153 41.5698C132.979 41.8098 132.891 42.1398 132.891 42.5598Z" fill="#A0A0A0"/>
<path d="M140.229 42.7198L140.279 42.0098H140.249L139.815 42.7398L138.022 44.9998H137.195V39.9998H138.505V42.3798L138.445 43.0598H138.485L138.898 42.3498L140.712 39.9998H141.539V44.9998H140.229V42.7198Z" fill="#A0A0A0"/>
<path d="M145.428 41.1498H144.43C144.39 41.6231 144.343 42.0931 144.289 42.5598C144.235 43.0265 144.148 43.4465 144.027 43.8198C143.913 44.1865 143.755 44.4865 143.553 44.7198C143.352 44.9465 143.09 45.0598 142.767 45.0598C142.378 45.0598 142.102 45.0098 141.941 44.9098L142.102 43.8298C142.21 43.8698 142.31 43.8898 142.404 43.8898C142.539 43.8898 142.656 43.8331 142.757 43.7198C142.858 43.6065 142.942 43.4031 143.009 43.1098C143.083 42.8165 143.14 42.4198 143.18 41.9198C143.227 41.4131 143.261 40.7731 143.281 39.9998H146.738V44.9998H145.428V41.1498Z" fill="#A0A0A0"/>
<path d="M151.904 44.5698C151.702 44.7298 151.427 44.8665 151.077 44.9798C150.735 45.0865 150.369 45.1398 149.979 45.1398C149.166 45.1398 148.571 44.9065 148.195 44.4398C147.819 43.9665 147.631 43.3198 147.631 42.4998C147.631 41.6198 147.843 40.9598 148.266 40.5198C148.689 40.0798 149.284 39.8598 150.049 39.8598C150.305 39.8598 150.553 39.8931 150.795 39.9598C151.037 40.0265 151.252 40.1365 151.44 40.2898C151.628 40.4431 151.779 40.6498 151.894 40.9098C152.008 41.1698 152.065 41.4931 152.065 41.8798C152.065 42.0198 152.055 42.1698 152.035 42.3298C152.021 42.4898 151.998 42.6565 151.964 42.8298H148.941C148.961 43.2498 149.069 43.5665 149.263 43.7798C149.465 43.9931 149.787 44.0998 150.231 44.0998C150.506 44.0998 150.751 44.0598 150.966 43.9798C151.188 43.8931 151.356 43.8065 151.47 43.7198L151.904 44.5698ZM150.029 40.8998C149.687 40.8998 149.431 41.0031 149.263 41.2098C149.102 41.4098 149.005 41.6798 148.971 42.0198H150.846C150.872 41.6598 150.815 41.3831 150.674 41.1898C150.54 40.9965 150.325 40.8998 150.029 40.8998Z" fill="#A0A0A0"/>
<path d="M156.023 42.7198L156.074 42.0098H156.043L155.61 42.7398L153.816 44.9998H152.99V39.9998H154.3V42.3798L154.24 43.0598H154.28L154.693 42.3498L156.507 39.9998H157.333V44.9998H156.023V42.7198ZM154.623 37.9598C154.67 38.2198 154.747 38.4031 154.854 38.5098C154.969 38.6165 155.113 38.6698 155.288 38.6698C155.476 38.6698 155.624 38.6165 155.731 38.5098C155.845 38.4031 155.923 38.2231 155.963 37.9698L156.96 38.2198C156.88 38.6531 156.682 38.9765 156.366 39.1898C156.05 39.3965 155.681 39.4998 155.257 39.4998C155.049 39.4998 154.848 39.4765 154.653 39.4298C154.458 39.3831 154.283 39.3098 154.129 39.2098C153.974 39.1031 153.843 38.9698 153.736 38.8098C153.628 38.6498 153.554 38.4531 153.514 38.2198L154.623 37.9598Z" fill="#A0A0A0"/>
</svg>
