<svg width="14" height="8" viewBox="0 0 14 8" fill="none" xmlns="http://www.w3.org/2000/svg">
<path d="M6.98902 7.49942C6.75578 7.49988 6.52974 7.4185 6.35014 7.26942L0.360621 2.26942C0.156761 2.09968 0.0285612 1.85577 0.00422411 1.59134C-0.020113 1.32692 0.0614062 1.06364 0.230848 0.859421C0.40029 0.655204 0.643776 0.52678 0.90774 0.5024C1.1717 0.478021 1.43452 0.559682 1.63838 0.729421L6.98902 5.20942L12.3397 0.889422C12.4418 0.806356 12.5593 0.744324 12.6854 0.706892C12.8115 0.66946 12.9438 0.657367 13.0746 0.671306C13.2054 0.685245 13.3321 0.724942 13.4475 0.788116C13.563 0.851289 13.6648 0.936694 13.7472 1.03942C13.8386 1.14224 13.9079 1.26287 13.9506 1.39374C13.9933 1.52462 14.0086 1.66292 13.9954 1.79998C13.9823 1.93704 13.9411 2.06992 13.8743 2.19027C13.8076 2.31063 13.7167 2.41588 13.6074 2.49942L7.61792 7.32942C7.43316 7.45494 7.21173 7.51479 6.98902 7.49942Z" fill="#FF5C00"/>
</svg>
