<svg width="25" height="24" viewBox="0 0 25 24" fill="none" xmlns="http://www.w3.org/2000/svg">
<path d="M23.908 19.9568L20.4897 23.3134C19.9852 23.8257 19.3163 23.9992 18.665 24C15.7845 23.9146 13.0617 22.5139 10.8262 21.0757C7.15669 18.4331 3.78976 15.1564 1.67662 11.1966C0.866152 9.53618 -0.084813 7.41756 0.00604465 5.56418C0.0141465 4.86698 0.203943 4.18272 0.699973 3.73332L4.11822 0.351297C4.82803 -0.246363 5.51446 -0.0397228 5.96869 0.656437L8.71868 5.81848C9.00813 6.43002 8.84209 7.08526 8.41025 7.52224L7.15089 8.76824C7.07314 8.87366 7.02364 8.99366 7.02239 9.12426C7.50531 10.9747 8.9683 12.6802 10.2607 13.854C11.5531 15.0277 12.9423 16.6179 14.7456 16.9944C14.9684 17.0559 15.2415 17.0776 15.4009 16.9308L16.8659 15.456C17.371 15.0771 18.1001 14.8919 18.6393 15.2017H18.665L23.6253 18.1005C24.3534 18.5524 24.4294 19.4256 23.908 19.9568Z" fill="#FF5C00"/>
</svg>
