<svg width="196" height="165" viewBox="0 0 196 165" fill="none" xmlns="http://www.w3.org/2000/svg">
<path d="M161.137 2.06171C160.858 1.58526 161.018 0.972595 161.494 0.693294C161.971 0.413992 162.583 0.573817 162.863 1.05027L161.137 2.06171ZM139.5 85.556L140.145 86.3203L139.5 85.556ZM0.99994 119.556L11.2103 114.163L10.7754 125.702L0.99994 119.556ZM162 1.55599C162.863 1.05027 162.863 1.05096 162.864 1.05181C162.864 1.05231 162.864 1.05333 162.865 1.05434C162.866 1.05636 162.868 1.05904 162.87 1.06239C162.874 1.06908 162.879 1.07841 162.886 1.09037C162.9 1.11428 162.919 1.14869 162.944 1.19341C162.994 1.28285 163.066 1.41356 163.157 1.58412C163.339 1.92522 163.596 2.42585 163.905 3.07462C164.522 4.37195 165.345 6.26306 166.179 8.65679C167.845 13.4424 169.559 20.2498 169.75 28.345C170.132 44.5798 164.38 65.8715 140.145 86.3203L138.855 84.7917C162.619 64.7405 168.118 44.0321 167.75 28.392C167.566 20.5497 165.905 13.9508 164.29 9.31456C163.483 6.99736 162.689 5.17362 162.099 3.93384C161.804 3.31406 161.56 2.84057 161.392 2.52469C161.308 2.36676 161.243 2.24826 161.199 2.17062C161.177 2.1318 161.161 2.10319 161.151 2.08498C161.145 2.07588 161.142 2.06937 161.139 2.06548C161.138 2.06354 161.138 2.06225 161.137 2.06162C161.137 2.06131 161.137 2.06133 161.137 2.06117C161.137 2.06136 161.137 2.06171 162 1.55599ZM140.145 86.3203C120.54 102.862 93.979 111.597 69.3898 116.154C44.7828 120.714 22.0391 121.11 9.97444 120.895L10.0101 118.895C22.0004 119.109 44.5984 118.714 69.0254 114.187C93.4703 109.657 119.635 101.008 138.855 84.7917L140.145 86.3203Z" fill="white"/>
</svg>
