<svg width="80" height="80" viewBox="0 0 80 80" fill="none" xmlns="http://www.w3.org/2000/svg">
<g clip-path="url(#clip0)">
<path fill-rule="evenodd" clip-rule="evenodd" d="M11.042 54.2365C11.042 52.3634 12.566 50.8395 14.439 50.8395C16.312 50.8395 17.8359 52.3634 17.8361 54.2365C17.8361 56.1097 16.3122 57.6336 14.439 57.6336C12.5658 57.6336 11.042 56.1096 11.042 54.2365ZM13.3939 54.2364C13.3939 54.8127 13.8628 55.2815 14.439 55.2815C15.0152 55.2815 15.484 54.8127 15.4842 54.2364C15.4842 53.66 15.0154 53.1912 14.439 53.1912C13.8627 53.1912 13.3939 53.66 13.3939 54.2364Z" fill="black"/>
<path fill-rule="evenodd" clip-rule="evenodd" d="M62.5685 54.2365C62.5685 52.3634 64.0925 50.8395 65.9655 50.8395C67.8385 50.8395 69.3625 52.3634 69.3625 54.2365C69.3625 56.1097 67.8387 57.6336 65.9655 57.6336C64.0923 57.6336 62.5685 56.1096 62.5685 54.2365ZM64.9203 54.2364C64.9203 54.8127 65.3893 55.2815 65.9655 55.2815C66.5417 55.2815 67.0106 54.8127 67.0106 54.2364C67.0106 53.66 66.5418 53.1912 65.9655 53.1912C65.3891 53.1912 64.9203 53.66 64.9203 54.2364Z" fill="black"/>
<path fill-rule="evenodd" clip-rule="evenodd" d="M76.9904 44.2166V33.5581C76.9904 32.2236 76.6334 30.91 75.9581 29.7592L74.5945 27.4354C74.2657 26.8752 73.5451 26.6873 72.9852 27.0164C72.4251 27.3451 72.2374 28.0657 72.5662 28.6257L73.9298 30.9495C74.3936 31.7399 74.6387 32.6418 74.6387 33.5582V33.7384H72.2774C70.9169 33.7384 69.8102 34.8452 69.8102 36.2056V42.9172C69.8102 44.2777 70.9169 45.3845 72.2774 45.3845H74.6487C74.721 45.9646 75.2149 46.4138 75.8146 46.4138H75.8695C76.8504 46.4138 77.6483 47.2117 77.6483 48.1926V50.0979H72.9256C71.5107 47.7276 68.921 46.1358 65.9655 46.1358C63.01 46.1358 60.4203 47.7276 59.0054 50.0979H47.1893L48.6583 46.8216C48.8199 46.4612 48.9019 46.0778 48.9019 45.6825V36.0902H56.7617C57.4111 36.0902 57.9376 35.5637 57.9376 34.9143C57.9376 34.2649 57.4111 33.7384 56.7617 33.7384H51.2544V24.719H64.1563L64.1467 33.7384H61.7731C61.1236 33.7384 60.5971 34.2649 60.5971 34.9143C60.5971 35.5637 61.1236 36.0902 61.7731 36.0902H64.1467C65.449 36.0902 66.5086 35.0306 66.5086 33.7283V24.3077C66.5086 23.2401 65.6401 22.3696 64.5616 22.3671H37.1978C36.7229 22.3671 36.264 22.5388 35.9059 22.8505L23.0598 34.0272C22.6898 34.3492 22.5584 34.867 22.7303 35.3264C22.9021 35.7858 23.3411 36.0902 23.8316 36.0902H46.5498V45.6825C46.5498 45.744 46.5371 45.8034 46.512 45.8594L44.6117 50.0979H31.2072C30.5577 50.0979 30.0312 50.6244 30.0312 51.2739C30.0312 51.9233 30.5577 52.4498 31.2072 52.4498H58.0656C57.9355 53.0251 57.8646 53.6224 57.8646 54.2366C57.8646 54.4337 57.8741 54.6284 57.8881 54.822H22.5161C22.5301 54.6284 22.5396 54.4337 22.5396 54.2366C22.5396 53.6226 22.4686 53.0251 22.3386 52.4498H26.196C26.8454 52.4498 27.3719 51.9233 27.3719 51.2739C27.3719 50.6244 26.8454 50.0979 26.196 50.0979H21.399C20.5647 48.7001 19.3216 47.5745 17.8359 46.8851V35.4548L34.7113 20.7722C35.2724 20.284 35.9912 20.0151 36.735 20.0151H64.5614C66.3819 20.0151 68.0853 20.9905 69.0068 22.5606L70.0265 24.2985C70.3552 24.8585 71.0756 25.0461 71.636 24.7176C72.196 24.3889 72.3837 23.6683 72.0551 23.1081L71.0353 21.3702C69.6934 19.0836 67.2128 17.6631 64.5616 17.6631H36.7351C35.4237 17.6631 34.1567 18.1371 33.1677 18.9978L16.2202 33.7431H8.26084C3.70575 33.7432 0 37.449 0 42.0041V54.6394C0 56.0368 1.13689 57.1737 2.53437 57.1737H6.8919C8.07081 60.1921 11.0083 62.3372 14.439 62.3372C17.8698 62.3372 20.8072 60.1923 21.9861 57.1737H58.4184C59.5973 60.1921 62.5347 62.3372 65.9655 62.3372C69.3964 62.3372 72.3339 60.1923 73.5128 57.1737H77.4581C78.8598 57.1737 80.0001 56.0334 80.0001 54.6318V48.1926C80 46.3033 78.7251 44.7062 76.9904 44.2166ZM72.2773 36.0901H74.6385V38.3853H72.162V36.2055C72.162 36.142 72.2138 36.0901 72.2773 36.0901ZM72.162 42.9172V40.7374H74.6385V43.0326H72.2773C72.2138 43.0326 72.162 42.9809 72.162 42.9172ZM46.5493 24.7188H48.9026V33.7382H46.5493V24.7188ZM37.3415 24.7188H44.1976V33.7382H26.9749L37.3415 24.7188ZM15.484 36.0953V46.2054C15.1416 46.1611 14.7932 46.1358 14.4389 46.1358C11.481 46.1358 8.88941 47.7302 7.47531 50.1039C7.43643 50.1 7.39708 50.0979 7.35725 50.0979H2.35186V44.1527H5.55008C7.50636 44.1527 9.09779 42.5612 9.09779 40.6049C9.09779 38.6486 7.50636 37.0572 5.55008 37.0572H5.03518C5.96338 36.4499 7.07111 36.0953 8.26084 36.0953H15.484ZM5.55008 39.4087C6.20954 39.4087 6.74592 39.9453 6.74592 40.6046C6.74592 41.264 6.20939 41.8006 5.55008 41.8006H2.35704C2.3862 40.9451 2.59708 40.1351 2.95378 39.4087H5.55008ZM2.53437 54.8219C2.43371 54.8219 2.35186 54.74 2.35186 54.6394V52.4496H6.53927C6.40914 53.0249 6.33827 53.6223 6.33827 54.2364C6.33827 54.4335 6.34783 54.6282 6.36179 54.8219H2.53437ZM14.439 59.9852C11.2692 59.9852 8.69013 57.4063 8.69013 54.2363C8.69013 51.0663 11.269 48.4874 14.439 48.4874C17.609 48.4874 20.1879 51.0663 20.1879 54.2363C20.1879 57.4063 17.6089 59.9852 14.439 59.9852ZM65.9655 59.9852C62.7956 59.9852 60.2166 57.4063 60.2166 54.2363C60.2166 51.0663 62.7955 48.4874 65.9655 48.4874C69.1355 48.4874 71.7144 51.0663 71.7144 54.2363C71.7144 57.4063 69.1353 59.9852 65.9655 59.9852ZM77.4579 54.8219H74.0426C74.0565 54.6282 74.0661 54.4335 74.0661 54.2364C74.0661 53.6224 73.9951 53.0249 73.8651 52.4496H77.6481V54.6317C77.6481 54.7366 77.5628 54.8219 77.4579 54.8219Z" fill="black"/>
<path d="M44.6932 39.1062C44.6932 39.7556 44.1667 40.2821 43.5173 40.2821H41.2575C40.608 40.2821 40.0815 39.7556 40.0815 39.1062C40.0815 38.4568 40.608 37.9303 41.2575 37.9303H43.5173C44.1667 37.9303 44.6932 38.4568 44.6932 39.1062Z" fill="black"/>
</g>
<defs>
<clipPath id="clip0">
<rect width="80" height="80" fill="white"/>
</clipPath>
</defs>
</svg>
