<svg width="80" height="80" viewBox="0 0 80 80" fill="none" xmlns="http://www.w3.org/2000/svg">
<g clip-path="url(#clip0)">
<path d="M58.3042 3.14841L12.1417 0.0568539C10.6369 -0.0429594 9.33172 1.09957 9.23093 2.60585L8.86984 8.01219H2.73437C1.22672 8.01219 0 9.24046 0 10.75V77.313C0 78.8225 1.22672 80.0508 2.73437 80.0508H38.0689C38.3751 80.0508 38.6786 79.9255 38.8958 79.7089L44.2298 74.3918C44.2841 74.4034 44.3394 74.4126 44.3962 74.4163L53.5028 75.0262C54.9562 75.1222 56.3161 73.9385 56.4136 72.4772L60.85 6.06302C60.9498 4.57239 59.7928 3.24806 58.3042 3.14841ZM39.2408 76.0374V67.8865C39.2408 67.671 39.4161 67.4954 39.6314 67.4954H47.7408L39.2408 76.0374ZM54.075 72.3207C54.0369 72.557 53.8983 72.6784 53.6594 72.6848L46.4281 72.2004L51.3894 67.255C51.6103 67.0348 51.7345 66.7356 51.7345 66.4234V10.7502C51.7345 9.24061 50.5078 8.01235 49.0001 8.01235H36.8137C35.2986 8.01235 35.2986 10.3591 36.8137 10.3591H49.0001C49.2156 10.3591 49.3908 10.5346 49.3908 10.7502V65.1487H39.6314C38.1237 65.1487 36.897 66.377 36.897 67.8865V77.7041H2.73437C2.51906 77.7041 2.34375 77.5285 2.34375 77.313V10.7502C2.34375 10.5346 2.51906 10.3591 2.73437 10.3591H30.5731C32.0883 10.3591 32.0883 8.01235 30.5731 8.01235H11.2187L11.5694 2.76261C11.6075 2.52622 11.7461 2.40497 11.9852 2.39855L58.1476 5.48995C58.3837 5.52812 58.505 5.66689 58.5114 5.90626L54.075 72.3207Z" fill="black"/>
<path d="M41.848 37.0857H9.88657C9.23939 37.0857 8.7147 37.6111 8.7147 38.2591C8.7147 38.9071 9.23939 39.4324 9.88657 39.4324H41.848C42.4953 39.4324 43.0199 38.9071 43.0199 38.2591C43.0199 37.6111 42.4953 37.0857 41.848 37.0857Z" fill="black"/>
<path d="M41.848 45.2656H9.88657C9.23939 45.2656 8.7147 45.7909 8.7147 46.4389C8.7147 47.0869 9.23939 47.6123 9.88657 47.6123H41.848C42.4953 47.6123 43.0199 47.0869 43.0199 46.4389C43.0199 45.7909 42.4953 45.2656 41.848 45.2656Z" fill="black"/>
<path d="M8.7147 30.0792C8.7147 30.7272 9.23939 31.2525 9.88657 31.2525H41.848C42.4953 31.2525 43.0199 30.7272 43.0199 30.0792C43.0199 29.4312 42.4953 28.9058 41.848 28.9058H9.88657C9.23939 28.9058 8.7147 29.4312 8.7147 30.0792Z" fill="black"/>
<path d="M14.3449 21.8994C14.3449 22.5474 14.8695 23.0727 15.5167 23.0727H36.2178C36.865 23.0727 37.3897 22.5474 37.3897 21.8994C37.3897 21.2514 36.865 20.726 36.2178 20.726H15.5167C14.8695 20.726 14.3449 21.2514 14.3449 21.8994Z" fill="black"/>
<path d="M30.4304 68.6473C28.3228 68.6529 26.2151 68.6575 24.1075 68.6608C23.399 68.6619 22.6908 68.6628 21.9825 68.6633C20.6989 68.6642 19.834 68.4062 19.5465 66.9926C19.3034 65.7973 17.6147 65.958 17.2865 66.9926C16.4756 69.5484 15.1344 68.547 14.3831 66.8278C13.6336 65.1127 13.4414 63.1931 13.114 61.3678C12.8734 60.0266 10.8475 60.4025 10.8122 61.6798C10.7656 63.3617 10.6087 65.0169 10.1823 66.6482C9.74248 68.3313 9.08326 69.9488 8.42889 71.5569C7.85842 72.9588 10.1269 73.5619 10.6889 72.1808C11.2687 70.7559 11.8494 69.3232 12.2815 67.845C13.0847 69.7787 14.7462 71.9659 17.1139 70.6769C17.5544 70.4371 17.9658 70.0962 18.3269 69.6986C19.5581 71.1232 21.3908 71.0109 23.1056 71.0089C25.5473 71.0057 27.989 71.0004 30.4308 70.994C31.9384 70.9901 31.9412 68.6434 30.4304 68.6473Z" fill="black"/>
<path d="M79.0519 38.5551C78.443 37.9484 77.6058 37.6372 76.7558 37.6142L75.8702 37.6186V35.9416C75.8702 34.9202 75.2642 33.841 74.3962 33.3036V30.9416C74.3962 26.0809 66.8381 26.102 66.8381 30.9644V33.3268C65.9539 33.874 65.3608 34.8507 65.3608 35.9632V37.6813C61.4598 37.9473 61.4488 43.8993 65.3652 44.1319C65.3902 49.3846 65.3889 54.5513 65.3608 59.892C65.3531 61.3647 67.6966 61.4511 67.7045 59.9043C67.7327 54.5591 67.7339 49.3879 67.7091 44.1308L73.5233 44.1019C73.5233 44.1019 73.5158 61.4437 73.5158 69.2561C73.5158 73.0637 67.7003 73.089 67.7003 69.2165L67.7023 67.0768C67.7938 65.5624 65.4544 65.4211 65.3628 66.9354V68.9432C65.3628 70.6641 65.8944 72.1216 66.9234 73.1468C67.015 75.6019 68.0481 77.9776 69.7936 79.7107C70.2944 80.2082 70.9877 80.0561 71.4723 79.6822C73.2481 77.901 74.2487 75.5529 74.3112 73.0467C75.0848 72.2752 75.8594 71.4984 75.8594 68.8388L75.8603 58.1455C77.8869 58.7227 80 57.1524 80 55.025V40.8397C80 39.9756 79.6633 39.1643 79.0519 38.5551ZM67.7045 37.6591V35.963C67.7045 35.6159 67.9425 35.3247 68.2628 35.2382L72.9542 35.2149C73.0855 35.2475 73.2066 35.3096 73.3047 35.4075C73.4477 35.55 73.5264 35.7396 73.5264 35.9416V37.6303L67.7045 37.6591ZM70.6219 29.5238C71.3413 29.5238 72.0523 30.23 72.0523 30.9416V32.8449L69.1817 32.8591V30.9644C69.1819 30.1739 69.8275 29.5277 70.6219 29.5238ZM70.6202 77.0683C70.0753 76.2951 69.6813 75.4207 69.4613 74.5016C69.8241 74.5803 70.1916 74.6213 70.5592 74.6213C70.9697 74.6213 71.38 74.5703 71.7841 74.4716C71.5694 75.4046 71.1759 76.2843 70.6202 77.0683ZM77.6562 55.025C77.6562 56.136 75.8669 56.2234 75.8669 55.0455C75.8669 55.0455 75.8689 43.9418 75.8702 42.924C75.8709 42.2675 75.3259 41.7492 74.6892 41.7492L65.5659 41.7946C64.4344 41.7946 64.4608 40.0219 65.5775 40.0164L76.7673 39.9609C77.3084 40.007 77.6047 40.3001 77.6561 40.8397L77.6562 55.025Z" fill="black"/>
</g>
<defs>
<clipPath id="clip0">
<rect width="80" height="80" fill="white"/>
</clipPath>
</defs>
</svg>
