<svg width="80" height="80" viewBox="0 0 80 80" fill="none" xmlns="http://www.w3.org/2000/svg">
<g clip-path="url(#clip0)">
<path d="M41.4026 36.4093H45.0489V39.3787C45.0489 40.0104 45.4297 40.5805 46.0132 40.8222C46.2067 40.9021 46.4099 40.9412 46.6114 40.9412C47.0179 40.9412 47.4176 40.7825 47.7161 40.4834L51.7902 36.4093H72.0307C76.4246 36.4093 80 32.8345 80 28.44V11.2506C80 6.85608 76.4246 3.28125 72.0307 3.28125H41.4026C37.0081 3.28125 33.4327 6.85608 33.4327 11.2506V28.44C33.4327 32.8345 37.0081 36.4093 41.4026 36.4093ZM36.5583 11.2506C36.5583 8.57971 38.7311 6.40625 41.4026 6.40625H72.0307C74.7016 6.40625 76.8744 8.57971 76.8744 11.2506V28.44C76.8744 31.1109 74.7016 33.2843 72.0307 33.2843H51.1432C50.7288 33.2843 50.3315 33.4491 50.0379 33.7421L48.1739 35.6061V34.8468C48.1739 33.9838 47.4744 33.2843 46.6114 33.2843H41.4026C38.7311 33.2843 36.5583 31.1109 36.5583 28.44V11.2506Z" fill="#202020"/>
<path d="M41.7059 29.3519H57.9578C58.8202 29.3519 59.5203 28.6518 59.5203 27.7887V25.3168C59.5203 22.3792 57.4555 19.9164 54.7016 19.2987C55.0891 18.5474 55.3095 17.6972 55.3095 16.7957V15.8167C55.3095 12.7961 52.8522 10.3388 49.8316 10.3388C46.8115 10.3388 44.3543 12.7961 44.3543 15.8167V16.7957C44.3543 17.6972 44.5746 18.5474 44.9622 19.2987C42.2077 19.9164 40.1434 22.3792 40.1434 25.3168V27.7887C40.1434 28.6518 40.8429 29.3519 41.7059 29.3519ZM47.4793 15.8167C47.4793 14.5197 48.5346 13.4644 49.8316 13.4644C51.1286 13.4644 52.1839 14.5197 52.1839 15.8167V16.7957C52.1839 18.0927 51.1286 19.148 49.8316 19.148C48.5346 19.148 47.4793 18.0927 47.4793 16.7957V15.8167ZM43.2684 25.3168C43.2684 23.6383 44.6338 22.273 46.3123 22.273H53.3508C55.0293 22.273 56.3947 23.6383 56.3947 25.3168V26.2262H43.2684V25.3168Z" fill="#202020"/>
<path d="M64.3732 16.0223H70.9888C71.8512 16.0223 72.5513 15.3229 72.5513 14.4598C72.5513 13.5968 71.8512 12.8973 70.9888 12.8973H64.3732C63.5108 12.8973 62.8107 13.5968 62.8107 14.4598C62.8107 15.3229 63.5108 16.0223 64.3732 16.0223Z" fill="#202020"/>
<path d="M64.3732 22.2729H70.9888C71.8512 22.2729 72.5513 21.5735 72.5513 20.7104C72.5513 19.8474 71.8512 19.1479 70.9888 19.1479H64.3732C63.5108 19.1479 62.8107 19.8474 62.8107 20.7104C62.8107 21.5735 63.5108 22.2729 64.3732 22.2729Z" fill="#202020"/>
<path d="M64.3732 28.5236H70.9888C71.8512 28.5236 72.5513 27.8241 72.5513 26.9611C72.5513 26.098 71.8512 25.3986 70.9888 25.3986H64.3732C63.5108 25.3986 62.8107 26.098 62.8107 26.9611C62.8107 27.8241 63.5108 28.5236 64.3732 28.5236Z" fill="#202020"/>
<path d="M79.5423 74.3409L76.0364 70.835C75.5298 70.3284 74.8566 70.0495 74.14 70.0495C73.4235 70.0495 72.7497 70.3284 72.2431 70.835L69.7296 73.3484L67.212 70.8307C66.1658 69.7852 64.4641 69.7852 63.4186 70.8307L60.9174 73.332L58.2733 70.6879C57.2272 69.6424 55.5255 69.6424 54.48 70.6879L52.2229 72.945L48.805 67.1515L50.636 65.9198C50.6372 65.9186 50.6391 65.918 50.6403 65.9168L50.8564 65.7715C52.9438 64.3665 54.2804 62.1247 54.5227 59.6198C54.765 57.1155 53.8837 54.6589 52.1051 52.8797L45.6537 46.4283C42.7344 43.5096 38.0347 43.1641 34.7205 45.625L30.5451 48.7256C30.2289 48.9606 29.7809 48.9276 29.5026 48.6493L22.1308 41.2775C21.8524 40.9992 21.8195 40.5512 22.0539 40.235L25.1551 36.0596C27.616 32.7454 27.2705 28.0451 24.3518 25.127L17.9004 18.6749C16.1212 16.8958 13.664 16.015 11.1597 16.2573C8.65542 16.4997 6.4136 17.8363 5.00857 19.9237L4.81936 20.2051C4.81753 20.2075 4.8157 20.21 4.81448 20.2124L2.47195 23.6939C-1.405 29.4556 -0.654881 37.2016 4.2554 42.1118L12.0423 49.8981C12.6526 50.5085 13.642 50.5085 14.2523 49.8981C14.8627 49.2884 14.8627 48.2984 14.2523 47.688L6.46548 39.9018C2.60928 36.0456 2.02029 29.9628 5.06472 25.4389L6.35867 23.5163L20.2564 37.414L19.5447 38.3722C18.3936 39.9225 18.5553 42.1222 19.9207 43.4876L27.2925 50.8588C28.6579 52.2248 30.857 52.3865 32.4079 51.2348L33.4308 50.4761L47.331 64.3763L45.3412 65.7154C40.8167 68.7598 34.7339 68.1708 30.8783 64.3146L23.0921 56.5284C22.4817 55.9186 21.4929 55.9186 20.882 56.5284C20.2716 57.1387 20.2716 58.1281 20.882 58.7384L28.6682 66.5247C31.4765 69.3329 35.2106 70.7801 38.9722 70.7801C41.4521 70.7801 43.9435 70.1496 46.1872 68.866L49.8224 75.0257C50.2472 75.7453 50.9662 76.2183 51.7951 76.3233C52.6245 76.4277 53.4388 76.1499 54.029 75.5591L56.3764 73.2111L59.0204 75.8551C60.0666 76.9007 61.7682 76.9007 62.8138 75.8551L65.315 73.3539L67.8327 75.8722C68.8788 76.9178 70.5805 76.9178 71.626 75.8722L74.14 73.3582L77.3322 76.5503C77.6374 76.8555 78.0371 77.0081 78.4369 77.0081C78.8373 77.0081 79.2371 76.8555 79.5423 76.5503C80.1526 75.94 80.1526 74.9506 79.5423 74.3409ZM8.19766 20.9357C9.05886 20.0495 10.2069 19.4898 11.4612 19.3683C13.0341 19.2163 14.574 19.7687 15.6903 20.885L22.1418 27.3371C23.9728 29.1681 24.1895 32.1173 22.6459 34.1962L22.1399 34.878L8.19766 20.9357ZM36.5839 48.1342C38.6627 46.59 41.612 46.8067 43.443 48.6383L49.8944 55.0898C51.0108 56.2061 51.5638 57.7478 51.4118 59.3189C51.2928 60.5463 50.7538 61.6718 49.9005 62.5263L35.9668 48.5926L36.5839 48.1342Z" fill="#202020"/>
<path d="M17.5671 51.6504C17.1545 51.6504 16.7529 51.8176 16.4624 52.1082C16.17 52.3993 16.0046 52.8021 16.0046 53.2129C16.0046 53.6243 16.17 54.0271 16.4624 54.3182C16.7529 54.6082 17.1552 54.776 17.5671 54.776C17.9785 54.776 18.3813 54.6088 18.6719 54.3182C18.9624 54.0271 19.1296 53.6243 19.1296 53.2129C19.1296 52.8021 18.963 52.3993 18.6719 52.1082C18.3813 51.8176 17.9785 51.6504 17.5671 51.6504Z" fill="#202020"/>
</g>
<defs>
<clipPath id="clip0">
<rect width="80" height="80" fill="white"/>
</clipPath>
</defs>
</svg>
